<svg width="200" height="70" viewBox="0 0 200 70" fill="none" xmlns="http://www.w3.org/2000/svg">
<g clip-path="url(#clip0_9_54)">
<path fill-rule="evenodd" clip-rule="evenodd" d="M0 69.0754V9.37181H12.5224V10.9086C15.3876 9.72245 18.6192 9.12929 22.2171 9.12929C25.718 9.12929 28.8284 9.66797 31.5483 10.7451C34.2682 11.8225 36.5842 13.3707 38.4962 15.3906C40.4083 17.4103 41.8759 19.7936 42.8994 22.5404C43.9226 25.2874 44.4342 28.2765 44.4342 31.5081C44.4342 35.7092 43.5859 39.3716 41.8893 42.4955C40.1927 45.6195 37.8635 48.0701 34.9011 49.8474C31.9389 51.6248 28.4919 52.5135 24.56 52.5135C22.8904 52.5135 12.5224 52.3319 12.5224 52.3319V69.0754H0ZM22.2171 19.9551C20.2782 19.9551 18.5951 20.4265 17.1677 21.369C15.7404 22.3116 14.6498 23.6043 13.8957 25.2468C13.1417 26.8895 12.7647 28.7344 12.7647 30.781C12.7647 32.8276 13.1417 34.659 13.8957 36.2748C14.6498 37.8904 15.7404 39.1697 17.1677 40.1122C18.5951 41.0547 20.2782 41.5261 22.2171 41.5261C24.156 41.5261 25.8256 41.0547 27.2261 40.1122C28.6265 39.1697 29.7171 37.8904 30.4981 36.2748C31.2791 34.659 31.6694 32.8276 31.6694 30.781C31.6694 28.7344 31.2791 26.8895 30.4981 25.2468C29.7171 23.6043 28.6265 22.3116 27.2261 21.369C25.8256 20.4265 24.156 19.9551 22.2171 19.9551Z" fill="white"/>
<path fill-rule="evenodd" clip-rule="evenodd" d="M46.822 39.5609C41.4256 40.95 39.9053 42.2692 39.1953 42.9791C37.8045 44.3699 35.5462 44.3699 34.1551 42.9791C32.7643 41.5883 32.7643 39.3299 34.1551 37.9389C35.1357 36.9586 37.2365 34.6028 45.9786 32.4583C46.059 29.247 46.662 26.2913 47.787 23.5908C48.9989 20.6823 50.6955 18.1643 52.8767 16.037C55.0581 13.9094 57.6164 12.2667 60.5519 11.1088C63.4872 9.95066 66.6784 9.37181 70.1254 9.37181C73.4109 9.37181 76.1173 9.91027 78.2449 10.9876C80.3722 12.0648 81.9746 13.465 83.0517 15.1887C84.1291 16.9122 84.6675 18.7434 84.6675 20.6823C84.6675 23.3752 84.0346 25.7316 82.769 27.7513C81.5032 29.7712 79.7528 31.4812 77.5177 32.8816C75.2825 34.2819 72.6568 35.3996 69.6406 36.2344C66.6246 37.0692 63.366 37.6481 59.8652 37.9714C59.488 38.0252 59.1919 38.0522 58.9765 38.0522H58.3301C59.138 39.3985 60.3632 40.4083 62.006 41.0816C63.6487 41.7549 65.7897 42.0915 68.4288 42.0915H77.7196L76.2654 51.544H67.6209C63.4199 51.544 59.6902 50.9111 56.4316 49.6453C53.1731 48.3797 50.6147 46.387 48.7566 43.6669C47.9263 42.4515 47.2814 41.0827 46.822 39.5609ZM57.2799 30.3772H57.6434C57.778 30.3772 57.9532 30.3502 58.1686 30.2962C61.2385 29.8654 63.7564 29.3402 65.7224 28.721C67.6882 28.1015 69.2233 27.4282 70.3273 26.7011C71.4316 25.974 72.1989 25.2468 72.6299 24.5199C73.0607 23.7928 73.2763 23.106 73.2763 22.4596C73.2763 21.4902 72.8857 20.6419 72.1047 19.9148C71.3237 19.1876 70.1254 18.8242 68.5096 18.8242C66.5169 18.8242 64.672 19.4032 62.9754 20.5611C61.2788 21.719 59.919 23.1733 58.8957 24.9237C57.8722 26.6742 57.3338 28.438 57.2799 30.2154V30.3772Z" fill="#FFB72D"/>
<path fill-rule="evenodd" clip-rule="evenodd" d="M98.5348 51.5458C94.7124 51.5458 91.7232 50.4551 89.5671 48.2738C87.4111 46.0924 86.3355 43.1437 86.3355 39.4274V0.00189209H98.9388V38.7002C98.9388 39.3465 99.166 39.8969 99.6255 40.3564C100.085 40.8108 100.635 41.043 101.282 41.043H110.33V51.5458H98.5348ZM86.3355 20.361V10.1006H110.33V20.361H86.3355Z" fill="white"/>
<path fill-rule="evenodd" clip-rule="evenodd" d="M133.032 52.5153C128.775 52.5153 124.953 51.5711 121.56 49.6876C118.167 47.7992 115.486 45.214 113.521 41.9319C111.557 38.6448 110.572 34.9536 110.572 30.8637C110.572 26.7131 111.557 23.012 113.521 19.7552C115.486 16.4933 118.167 13.9079 121.56 11.9993C124.953 10.0856 128.775 9.13129 133.032 9.13129C137.289 9.13129 141.096 10.0856 144.464 11.9993C147.832 13.9079 150.498 16.4933 152.462 19.7552C154.426 23.012 155.411 26.7131 155.411 30.8637C155.411 34.9536 154.426 38.6448 152.462 41.9319C150.498 45.214 147.817 47.7992 144.423 49.6876C141.03 51.5711 137.233 52.5153 133.032 52.5153ZM133.032 41.6086C135.026 41.6086 136.748 41.1239 138.203 40.1545C139.657 39.185 140.788 37.8923 141.596 36.2765C142.404 34.6607 142.808 32.8279 142.808 30.7829C142.808 28.7884 142.404 26.9858 141.596 25.37C140.788 23.7542 139.657 22.4616 138.203 21.4921C136.748 20.5226 135.026 20.0379 133.032 20.0379C131.037 20.0379 129.301 20.5226 127.821 21.4921C126.342 22.4616 125.195 23.7542 124.388 25.37C123.58 26.9858 123.176 28.7884 123.176 30.7829C123.176 32.8279 123.58 34.6607 124.388 36.2765C125.195 37.8923 126.342 39.185 127.821 40.1545C129.301 41.1239 131.037 41.6086 133.032 41.6086Z" fill="white"/>
<path fill-rule="evenodd" clip-rule="evenodd" d="M158.804 51.5459V27.7129C158.804 24.2642 159.637 21.1385 161.309 18.3412C162.98 15.5388 165.363 13.3021 168.459 11.6358C171.554 9.96444 175.23 9.13129 179.486 9.13129C183.793 9.13129 187.469 9.96444 190.514 11.6358C193.559 13.3021 195.886 15.5388 197.502 18.3412C199.118 21.1385 199.926 24.2642 199.926 27.7129V51.5459H187.403V28.036C187.403 26.5818 187.055 25.2488 186.353 24.037C185.651 22.8251 184.697 21.8556 183.485 21.1284C182.273 20.4013 180.915 20.0379 179.405 20.0379C177.845 20.0379 176.457 20.4013 175.245 21.1284C174.033 21.8556 173.079 22.8251 172.377 24.037C171.675 25.2488 171.327 26.5818 171.327 28.036V51.5459H158.804Z" fill="white"/>
</g>
<defs>
<clipPath id="clip0_9_54">
<rect width="200" height="69.2308" fill="white"/>
</clipPath>
</defs>
</svg>
