<svg width="583" height="505" viewBox="0 0 583 505" fill="none" xmlns="http://www.w3.org/2000/svg">
<path fill-rule="evenodd" clip-rule="evenodd" d="M155.035 361.506C94.0122 378.14 76.8202 393.937 68.7909 402.437C53.0633 419.092 27.5257 419.092 11.7957 402.437C-3.9319 385.783 -3.9319 358.74 11.7957 342.083C22.884 330.343 46.6409 302.134 145.498 276.455C146.407 238 153.226 202.605 165.947 170.269C179.652 135.44 198.838 105.288 223.503 79.8135C248.171 54.3365 277.101 34.6652 310.296 20.7997C343.488 6.93151 379.576 0 418.555 0C455.708 0 486.312 6.44787 510.371 19.3488C534.428 32.2472 552.548 49.0144 564.728 69.6554C576.911 90.2939 583 112.222 583 135.44C583 167.687 575.843 195.904 561.531 220.089C547.217 244.276 527.423 264.754 502.149 281.523C476.872 298.29 447.181 311.675 413.073 321.672C378.967 331.669 342.118 338.6 302.53 342.472C298.265 343.116 294.916 343.439 292.481 343.439H285.171C294.307 359.561 308.162 371.653 326.739 379.716C345.315 387.778 369.526 391.808 399.37 391.808H504.432L487.987 505H390.234C342.727 505 300.551 497.421 263.703 482.263C226.854 467.108 197.924 443.246 176.912 410.674C167.523 396.12 160.23 379.729 155.035 361.506ZM273.296 251.533H277.406C278.928 251.533 280.909 251.21 283.345 250.563C318.06 245.405 346.533 239.116 368.765 231.7C390.995 224.283 408.353 216.22 420.838 207.513C433.326 198.806 442.003 190.099 446.876 181.394C451.747 172.687 454.186 164.463 454.186 156.723C454.186 145.114 449.769 134.956 440.937 126.249C432.106 117.541 418.555 113.189 400.283 113.189C377.749 113.189 356.887 120.123 337.701 133.989C318.516 147.854 303.139 165.269 291.567 186.23C279.993 207.191 273.904 228.313 273.296 249.596V251.533Z" fill="#FFB72D"/>
</svg>
